<svg xmlns="http://www.w3.org/2000/svg" version="1.1" xmlns:xlink="http://www.w3.org/1999/xlink" xmlns:svgjs="http://svgjs.dev/svgjs" width="1000" height="1000" viewBox="0 0 1000 750"><rect width="1000" height="750" fill="#0023ff"></rect><g transform="matrix(0.584,0,0,0.584,207.9169461077845,82.91694610778441)"><svg viewBox="0 0 334 334" data-background-color="#0023ff" preserveAspectRatio="xMidYMid meet" height="1000" width="1000" xmlns="http://www.w3.org/2000/svg" xmlns:xlink="http://www.w3.org/1999/xlink"><g id="tight-bounds" transform="matrix(1,0,0,1,0.04749999999998522,0.04750000000001364)"><svg viewBox="0 0 333.90454557049503 333.90454557049503" height="333.90454557049503" width="333.90454557049503"><g><svg></svg></g><g><svg viewBox="0 0 333.90454557049503 333.90454557049503" height="333.90454557049503" width="333.90454557049503"><g><path d="M0 166.952c0-92.205 74.747-166.952 166.952-166.952 92.205 0 166.952 74.747 166.953 166.952 0 92.205-74.747 166.952-166.953 166.953-92.205 0-166.952-74.747-166.952-166.953zM166.952 316.63c82.665 0 149.677-67.013 149.678-149.678 0-82.665-67.013-149.677-149.678-149.677-82.665 0-149.677 67.013-149.677 149.677 0 82.665 67.013 149.677 149.677 149.678z" data-fill-palette-color="tertiary" fill="#f8fafc" stroke="transparent"></path><ellipse rx="160.27418187383762" ry="160.27418187383762" cx="166.95227278524752" cy="166.95227278524752" fill="#f8fafc" stroke="transparent" stroke-width="0" fill-opacity="1" data-fill-palette-color="tertiary"></ellipse></g><g transform="matrix(1,0,0,1,93.26539388912762,71.17305217166896)"><svg viewBox="0 0 147.3737577922398 191.55844122715712" height="191.55844122715712" width="147.3737577922398"><g><svg viewBox="0 0 147.3737577922398 191.55844122715712" height="191.55844122715712" width="147.3737577922398"><g><svg viewBox="0 0 147.3737577922398 191.55844122715712" height="191.55844122715712" width="147.3737577922398"><g id="textblocktransform"><svg viewBox="0 0 147.3737577922398 191.55844122715712" height="191.55844122715712" width="147.3737577922398" id="textblock"><g><svg viewBox="0 0 147.3737577922398 191.55844122715712" height="191.55844122715712" width="147.3737577922398"><g transform="matrix(1,0,0,1,0,0)"><svg width="147.3737577922398" viewBox="0.4000000059604645 -34.900001525878906 26.850000381469727 34.900001525878906" height="191.55844122715712" data-palette-color="#0023ff"><path d="M16.5 0L11.2 0 11.2-13.5 0.4-34.9 6.35-34.9 13.6-19.3 14.25-19.3 21.4-34.9 27.25-34.9 16.5-13.5 16.5 0Z" opacity="1" transform="matrix(1,0,0,1,0,0)" fill="#0023ff" class="undefined-text-0" data-fill-palette-color="quaternary" id="text-0"></path></svg></g></svg></g></svg></g></svg></g><g></g></svg></g></svg></g></svg></g><defs></defs></svg><rect width="333.90454557049503" height="333.90454557049503" fill="none" stroke="none" visibility="hidden"></rect></g></svg></g></svg>